<mxfile host="app.diagrams.net" agent="Mozilla/5.0 (Macintosh; Intel Mac OS X 10_15_7) AppleWebKit/605.1.15 (KHTML, like Gecko) Version/17.5 Safari/605.1.15" version="26.1.1">
  <diagram name="第 1 页" id="sGvh29YULSD5sSiBqfXN">
    <mxGraphModel dx="444" dy="289" grid="1" gridSize="10" guides="1" tooltips="1" connect="1" arrows="1" fold="1" page="1" pageScale="1" pageWidth="827" pageHeight="1169" math="0" shadow="0">
      <root>
        <mxCell id="0" />
        <mxCell id="1" parent="0" />
        <mxCell id="c8XtBeoRxxUXkUlpi2L7-397" value="" style="rounded=0;whiteSpace=wrap;html=1;dashed=1;dashPattern=12 12;" vertex="1" parent="1">
          <mxGeometry x="300.25" y="730" width="327" height="70" as="geometry" />
        </mxCell>
        <mxCell id="c8XtBeoRxxUXkUlpi2L7-398" value="" style="rounded=0;whiteSpace=wrap;html=1;dashed=1;dashPattern=12 12;" vertex="1" parent="1">
          <mxGeometry x="300" y="620" width="327" height="100" as="geometry" />
        </mxCell>
        <mxCell id="c8XtBeoRxxUXkUlpi2L7-399" value="" style="rounded=0;whiteSpace=wrap;html=1;dashed=1;" vertex="1" parent="1">
          <mxGeometry x="560" y="640" width="63" height="76.93" as="geometry" />
        </mxCell>
        <mxCell id="c8XtBeoRxxUXkUlpi2L7-400" value="" style="rounded=0;whiteSpace=wrap;html=1;dashed=1;" vertex="1" parent="1">
          <mxGeometry x="308" y="640" width="212" height="76.93" as="geometry" />
        </mxCell>
        <mxCell id="c8XtBeoRxxUXkUlpi2L7-401" value="" style="html=1;verticalLabelPosition=bottom;align=center;labelBackgroundColor=#ffffff;verticalAlign=top;strokeWidth=1;strokeColor=#000000;shadow=0;dashed=0;shape=mxgraph.ios7.icons.cloud;" vertex="1" parent="1">
          <mxGeometry x="363.75" y="500" width="200" height="100" as="geometry" />
        </mxCell>
        <mxCell id="c8XtBeoRxxUXkUlpi2L7-402" value="&lt;font style=&quot;font-size: 10px;&quot;&gt;云端节点集合&lt;/font&gt;" style="text;html=1;align=center;verticalAlign=middle;whiteSpace=wrap;rounded=0;fontStyle=1" vertex="1" parent="1">
          <mxGeometry x="448.25" y="507" width="68.5" height="30" as="geometry" />
        </mxCell>
        <mxCell id="c8XtBeoRxxUXkUlpi2L7-403" value="&lt;font style=&quot;font-size: 10px;&quot;&gt;c&lt;sub&gt;&lt;font&gt;2&lt;/font&gt;&lt;/sub&gt;&lt;/font&gt;" style="rounded=1;whiteSpace=wrap;html=1;" vertex="1" parent="1">
          <mxGeometry x="442.25" y="537" width="31" height="23" as="geometry" />
        </mxCell>
        <mxCell id="c8XtBeoRxxUXkUlpi2L7-404" value="&lt;font style=&quot;font-size: 10px;&quot;&gt;c&lt;sub&gt;1&lt;/sub&gt;&lt;/font&gt;" style="rounded=1;whiteSpace=wrap;html=1;" vertex="1" parent="1">
          <mxGeometry x="405.75" y="537" width="31" height="23" as="geometry" />
        </mxCell>
        <mxCell id="c8XtBeoRxxUXkUlpi2L7-405" value="&lt;span style=&quot;font-size: 10px;&quot;&gt;...&lt;/span&gt;" style="text;html=1;align=center;verticalAlign=middle;whiteSpace=wrap;rounded=0;fontStyle=1" vertex="1" parent="1">
          <mxGeometry x="469.25" y="550.5" width="23.5" height="9.5" as="geometry" />
        </mxCell>
        <mxCell id="c8XtBeoRxxUXkUlpi2L7-406" value="" style="rounded=0;whiteSpace=wrap;html=1;fillColor=#f5f5f5;fontColor=#333333;strokeColor=#000000;" vertex="1" parent="1">
          <mxGeometry x="400.25" y="579" width="127" height="10" as="geometry" />
        </mxCell>
        <mxCell id="c8XtBeoRxxUXkUlpi2L7-407" value="" style="endArrow=open;html=1;rounded=0;verticalAlign=top;endFill=0;dashed=1;exitX=0.16;exitY=-0.08;exitDx=0;exitDy=0;exitPerimeter=0;startArrow=open;startFill=0;endSize=3;startSize=3;" edge="1" parent="1" source="c8XtBeoRxxUXkUlpi2L7-406">
          <mxGeometry width="50" height="50" relative="1" as="geometry">
            <mxPoint x="420.75" y="590" as="sourcePoint" />
            <mxPoint x="420.75" y="560" as="targetPoint" />
          </mxGeometry>
        </mxCell>
        <mxCell id="c8XtBeoRxxUXkUlpi2L7-408" value="" style="endArrow=open;html=1;rounded=0;verticalAlign=top;endFill=0;dashed=1;exitX=0.455;exitY=-0.107;exitDx=0;exitDy=0;entryX=0.5;entryY=1;entryDx=0;entryDy=0;exitPerimeter=0;endSize=3;startSize=3;startArrow=open;startFill=0;" edge="1" parent="1" source="c8XtBeoRxxUXkUlpi2L7-406" target="c8XtBeoRxxUXkUlpi2L7-403">
          <mxGeometry width="50" height="50" relative="1" as="geometry">
            <mxPoint x="430.75" y="599" as="sourcePoint" />
            <mxPoint x="430.75" y="570" as="targetPoint" />
          </mxGeometry>
        </mxCell>
        <mxCell id="c8XtBeoRxxUXkUlpi2L7-409" value="&lt;font style=&quot;font-size: 10px;&quot;&gt;c&lt;/font&gt;&lt;font style=&quot;font-size: 8.33333px;&quot;&gt;&lt;sub&gt;r&lt;/sub&gt;&lt;/font&gt;" style="rounded=1;whiteSpace=wrap;html=1;" vertex="1" parent="1">
          <mxGeometry x="489.75" y="537" width="31" height="23" as="geometry" />
        </mxCell>
        <mxCell id="c8XtBeoRxxUXkUlpi2L7-410" value="" style="endArrow=open;html=1;rounded=0;verticalAlign=top;endFill=0;dashed=1;exitX=0.829;exitY=-0.043;exitDx=0;exitDy=0;entryX=0.5;entryY=1;entryDx=0;entryDy=0;exitPerimeter=0;startArrow=open;startFill=0;endSize=3;startSize=3;" edge="1" parent="1" source="c8XtBeoRxxUXkUlpi2L7-406" target="c8XtBeoRxxUXkUlpi2L7-409">
          <mxGeometry width="50" height="50" relative="1" as="geometry">
            <mxPoint x="467.75" y="599" as="sourcePoint" />
            <mxPoint x="467.75" y="570" as="targetPoint" />
          </mxGeometry>
        </mxCell>
        <mxCell id="c8XtBeoRxxUXkUlpi2L7-411" value="&lt;span style=&quot;font-size: 10px;&quot;&gt;...&lt;/span&gt;" style="text;html=1;align=center;verticalAlign=middle;whiteSpace=wrap;rounded=0;fontStyle=1" vertex="1" parent="1">
          <mxGeometry x="535.25" y="701" width="23.5" height="9.5" as="geometry" />
        </mxCell>
        <mxCell id="c8XtBeoRxxUXkUlpi2L7-412" value="" style="group" vertex="1" connectable="0" parent="1">
          <mxGeometry x="403.25" y="760.5" width="27.75" height="23.57" as="geometry" />
        </mxCell>
        <mxCell id="c8XtBeoRxxUXkUlpi2L7-413" value="" style="verticalLabelPosition=bottom;verticalAlign=top;html=1;shape=mxgraph.basic.diag_round_rect;dx=6;whiteSpace=wrap;" vertex="1" parent="c8XtBeoRxxUXkUlpi2L7-412">
          <mxGeometry width="18" height="20" as="geometry" />
        </mxCell>
        <mxCell id="c8XtBeoRxxUXkUlpi2L7-414" value="" style="sketch=0;outlineConnect=0;fontColor=#232F3E;gradientColor=none;fillColor=#7AA116;strokeColor=none;dashed=0;verticalLabelPosition=bottom;verticalAlign=top;align=center;html=1;fontSize=12;fontStyle=0;aspect=fixed;pointerEvents=1;shape=mxgraph.aws4.iot_thing_temperature_humidity_sensor;" vertex="1" parent="c8XtBeoRxxUXkUlpi2L7-412">
          <mxGeometry x="6" y="4.25" width="15.75" height="15.75" as="geometry" />
        </mxCell>
        <mxCell id="c8XtBeoRxxUXkUlpi2L7-415" value="" style="group" vertex="1" connectable="0" parent="1">
          <mxGeometry x="483" y="760.5" width="24.5" height="20" as="geometry" />
        </mxCell>
        <mxCell id="c8XtBeoRxxUXkUlpi2L7-416" value="" style="verticalLabelPosition=bottom;verticalAlign=top;html=1;shape=mxgraph.basic.diag_round_rect;dx=6;whiteSpace=wrap;" vertex="1" parent="c8XtBeoRxxUXkUlpi2L7-415">
          <mxGeometry x="1" width="18" height="20" as="geometry" />
        </mxCell>
        <mxCell id="c8XtBeoRxxUXkUlpi2L7-417" value="" style="image;html=1;image=img/lib/clip_art/networking/Ip_Camera_128x128.png" vertex="1" parent="c8XtBeoRxxUXkUlpi2L7-415">
          <mxGeometry x="8" y="7.139999999999986" width="16.5" height="12.86" as="geometry" />
        </mxCell>
        <mxCell id="c8XtBeoRxxUXkUlpi2L7-418" value="&lt;span style=&quot;font-size: 10px;&quot;&gt;d&lt;sub&gt;2&lt;/sub&gt;&lt;/span&gt;" style="text;html=1;align=center;verticalAlign=middle;resizable=0;points=[];autosize=1;strokeColor=none;fillColor=none;" vertex="1" parent="1">
          <mxGeometry x="356.25" y="773.5" width="30" height="30" as="geometry" />
        </mxCell>
        <mxCell id="c8XtBeoRxxUXkUlpi2L7-419" value="" style="shape=cube;whiteSpace=wrap;html=1;boundedLbl=1;backgroundOutline=1;darkOpacity=0.05;darkOpacity2=0.1;size=10;rotation=0;fillColor=default;container=0;" vertex="1" parent="1">
          <mxGeometry x="388.25" y="660" width="50" height="50.5" as="geometry" />
        </mxCell>
        <mxCell id="c8XtBeoRxxUXkUlpi2L7-420" value="" style="strokeWidth=1;html=1;shape=mxgraph.flowchart.database;whiteSpace=wrap;container=0;" vertex="1" parent="1">
          <mxGeometry x="403.75" y="685" width="13.5" height="12.5" as="geometry" />
        </mxCell>
        <mxCell id="c8XtBeoRxxUXkUlpi2L7-421" value="&lt;font style=&quot;font-size: 6px;&quot;&gt;influxdb&lt;/font&gt;" style="text;html=1;align=center;verticalAlign=middle;whiteSpace=wrap;rounded=0;container=0;" vertex="1" parent="1">
          <mxGeometry x="398.25" y="695" width="24.5" height="10.5" as="geometry" />
        </mxCell>
        <mxCell id="c8XtBeoRxxUXkUlpi2L7-422" value="" style="rounded=1;whiteSpace=wrap;html=1;fillColor=#d5e8d4;strokeColor=#82b366;container=0;" vertex="1" parent="1">
          <mxGeometry x="421.75" y="691.25" width="12" height="10" as="geometry" />
        </mxCell>
        <mxCell id="c8XtBeoRxxUXkUlpi2L7-423" value="" style="rounded=1;whiteSpace=wrap;html=1;fillColor=#f8cecc;strokeColor=#b85450;container=0;" vertex="1" parent="1">
          <mxGeometry x="421.5" y="675.5" width="12" height="10" as="geometry" />
        </mxCell>
        <mxCell id="c8XtBeoRxxUXkUlpi2L7-424" value="" style="group" vertex="1" connectable="0" parent="1">
          <mxGeometry x="362" y="760.5" width="27.75" height="23.57" as="geometry" />
        </mxCell>
        <mxCell id="c8XtBeoRxxUXkUlpi2L7-425" value="" style="verticalLabelPosition=bottom;verticalAlign=top;html=1;shape=mxgraph.basic.diag_round_rect;dx=6;whiteSpace=wrap;" vertex="1" parent="c8XtBeoRxxUXkUlpi2L7-424">
          <mxGeometry width="18" height="20" as="geometry" />
        </mxCell>
        <mxCell id="c8XtBeoRxxUXkUlpi2L7-426" value="" style="sketch=0;outlineConnect=0;fontColor=#232F3E;gradientColor=none;fillColor=#666666;strokeColor=none;dashed=0;verticalLabelPosition=bottom;verticalAlign=top;align=center;html=1;fontSize=12;fontStyle=0;aspect=fixed;pointerEvents=1;shape=mxgraph.aws4.iot_thing_humidity_sensor;" vertex="1" parent="c8XtBeoRxxUXkUlpi2L7-424">
          <mxGeometry x="5.88" y="4" width="16" height="16" as="geometry" />
        </mxCell>
        <mxCell id="c8XtBeoRxxUXkUlpi2L7-427" value="&lt;span style=&quot;font-size: 10px;&quot;&gt;d&lt;sub&gt;3&lt;/sub&gt;&lt;/span&gt;" style="text;html=1;align=center;verticalAlign=middle;resizable=0;points=[];autosize=1;strokeColor=none;fillColor=none;" vertex="1" parent="1">
          <mxGeometry x="398.5" y="773.5" width="30" height="30" as="geometry" />
        </mxCell>
        <mxCell id="c8XtBeoRxxUXkUlpi2L7-428" value="" style="endArrow=openThin;html=1;rounded=0;entryX=0.5;entryY=1;entryDx=0;entryDy=0;exitX=0.5;exitY=0;exitDx=0;exitDy=0;exitPerimeter=0;endFill=0;endSize=3;dashed=1;dashPattern=1 2;edgeStyle=orthogonalEdgeStyle;" edge="1" parent="1" source="c8XtBeoRxxUXkUlpi2L7-413" target="c8XtBeoRxxUXkUlpi2L7-422">
          <mxGeometry width="50" height="50" relative="1" as="geometry">
            <mxPoint x="329" y="808.5" as="sourcePoint" />
            <mxPoint x="359" y="741.5" as="targetPoint" />
            <Array as="points">
              <mxPoint x="412" y="750" />
              <mxPoint x="428" y="750" />
            </Array>
          </mxGeometry>
        </mxCell>
        <mxCell id="c8XtBeoRxxUXkUlpi2L7-429" value="" style="group" vertex="1" connectable="0" parent="1">
          <mxGeometry x="443" y="760.5" width="187" height="42.43000000000001" as="geometry" />
        </mxCell>
        <mxCell id="c8XtBeoRxxUXkUlpi2L7-430" value="" style="verticalLabelPosition=bottom;verticalAlign=top;html=1;shape=mxgraph.basic.diag_round_rect;dx=6;whiteSpace=wrap;container=0;" vertex="1" parent="c8XtBeoRxxUXkUlpi2L7-429">
          <mxGeometry width="18" height="20" as="geometry" />
        </mxCell>
        <mxCell id="c8XtBeoRxxUXkUlpi2L7-431" value="" style="sketch=0;outlineConnect=0;fontColor=#232F3E;gradientColor=none;fillColor=light-dark(#b85450, #61820b);strokeColor=none;dashed=0;verticalLabelPosition=bottom;verticalAlign=top;align=center;html=1;fontSize=12;fontStyle=0;aspect=fixed;pointerEvents=1;shape=mxgraph.aws4.iot_thing_vibration_sensor;" vertex="1" parent="c8XtBeoRxxUXkUlpi2L7-429">
          <mxGeometry x="10" y="3.57" width="13.5" height="13.5" as="geometry" />
        </mxCell>
        <mxCell id="c8XtBeoRxxUXkUlpi2L7-494" value="&lt;span style=&quot;font-size: 10px;&quot;&gt;...&lt;/span&gt;" style="text;html=1;align=center;verticalAlign=middle;whiteSpace=wrap;rounded=0;fontStyle=1" vertex="1" parent="c8XtBeoRxxUXkUlpi2L7-429">
          <mxGeometry x="97.25" y="16.5" width="23.5" height="9.5" as="geometry" />
        </mxCell>
        <mxCell id="c8XtBeoRxxUXkUlpi2L7-432" value="" style="endArrow=openThin;html=1;rounded=0;endFill=0;endSize=3;dashed=1;dashPattern=1 2;edgeStyle=orthogonalEdgeStyle;entryX=1.011;entryY=0.55;entryDx=0;entryDy=0;exitX=0.41;exitY=-0.109;exitDx=0;exitDy=0;exitPerimeter=0;entryPerimeter=0;" edge="1" parent="1" source="c8XtBeoRxxUXkUlpi2L7-430" target="c8XtBeoRxxUXkUlpi2L7-423">
          <mxGeometry width="50" height="50" relative="1" as="geometry">
            <mxPoint x="450" y="768.5" as="sourcePoint" />
            <mxPoint x="434.5" y="709.5" as="targetPoint" />
            <Array as="points">
              <mxPoint x="450" y="681" />
            </Array>
          </mxGeometry>
        </mxCell>
        <mxCell id="c8XtBeoRxxUXkUlpi2L7-433" value="" style="group" vertex="1" connectable="0" parent="1">
          <mxGeometry x="522" y="760.5" width="24.5" height="20" as="geometry" />
        </mxCell>
        <mxCell id="c8XtBeoRxxUXkUlpi2L7-434" value="" style="verticalLabelPosition=bottom;verticalAlign=top;html=1;shape=mxgraph.basic.diag_round_rect;dx=6;whiteSpace=wrap;" vertex="1" parent="c8XtBeoRxxUXkUlpi2L7-433">
          <mxGeometry width="18" height="20" as="geometry" />
        </mxCell>
        <mxCell id="c8XtBeoRxxUXkUlpi2L7-435" value="" style="image;html=1;image=img/lib/clip_art/networking/Ip_Camera_128x128.png" vertex="1" parent="c8XtBeoRxxUXkUlpi2L7-433">
          <mxGeometry x="8" y="7.139999999999986" width="16.5" height="12.86" as="geometry" />
        </mxCell>
        <mxCell id="c8XtBeoRxxUXkUlpi2L7-436" value="&lt;span style=&quot;font-size: 10px;&quot;&gt;d&lt;sub&gt;4&lt;/sub&gt;&lt;/span&gt;" style="text;html=1;align=center;verticalAlign=middle;resizable=0;points=[];autosize=1;strokeColor=none;fillColor=none;" vertex="1" parent="1">
          <mxGeometry x="437.5" y="773.5" width="30" height="30" as="geometry" />
        </mxCell>
        <mxCell id="c8XtBeoRxxUXkUlpi2L7-437" value="&lt;span style=&quot;font-size: 10px;&quot;&gt;d&lt;sub&gt;5&lt;/sub&gt;&lt;/span&gt;" style="text;html=1;align=center;verticalAlign=middle;resizable=0;points=[];autosize=1;strokeColor=none;fillColor=none;" vertex="1" parent="1">
          <mxGeometry x="477.5" y="773.5" width="30" height="30" as="geometry" />
        </mxCell>
        <mxCell id="c8XtBeoRxxUXkUlpi2L7-438" value="&lt;span style=&quot;font-size: 10px;&quot;&gt;d&lt;sub&gt;6&lt;/sub&gt;&lt;/span&gt;" style="text;html=1;align=center;verticalAlign=middle;resizable=0;points=[];autosize=1;strokeColor=none;fillColor=none;" vertex="1" parent="1">
          <mxGeometry x="517.5" y="773.5" width="30" height="30" as="geometry" />
        </mxCell>
        <mxCell id="c8XtBeoRxxUXkUlpi2L7-439" value="" style="group" vertex="1" connectable="0" parent="1">
          <mxGeometry x="560.5" y="760.5" width="24.5" height="20" as="geometry" />
        </mxCell>
        <mxCell id="c8XtBeoRxxUXkUlpi2L7-440" value="" style="verticalLabelPosition=bottom;verticalAlign=top;html=1;shape=mxgraph.basic.diag_round_rect;dx=6;whiteSpace=wrap;" vertex="1" parent="c8XtBeoRxxUXkUlpi2L7-439">
          <mxGeometry width="18" height="20" as="geometry" />
        </mxCell>
        <mxCell id="c8XtBeoRxxUXkUlpi2L7-441" value="" style="image;html=1;image=img/lib/clip_art/networking/Ip_Camera_128x128.png" vertex="1" parent="c8XtBeoRxxUXkUlpi2L7-439">
          <mxGeometry x="8" y="7.139999999999986" width="16.5" height="12.86" as="geometry" />
        </mxCell>
        <mxCell id="c8XtBeoRxxUXkUlpi2L7-442" value="&lt;span style=&quot;font-size: 10px;&quot;&gt;d&lt;/span&gt;&lt;sub&gt;&lt;font style=&quot;font-size: 8.3333px;&quot;&gt;n-1&lt;/font&gt;&lt;/sub&gt;" style="text;html=1;align=center;verticalAlign=middle;resizable=0;points=[];autosize=1;strokeColor=none;fillColor=none;" vertex="1" parent="1">
          <mxGeometry x="550" y="773.5" width="40" height="30" as="geometry" />
        </mxCell>
        <mxCell id="c8XtBeoRxxUXkUlpi2L7-443" value="" style="group" vertex="1" connectable="0" parent="1">
          <mxGeometry x="597.75" y="760.5" width="27.75" height="23.57" as="geometry" />
        </mxCell>
        <mxCell id="c8XtBeoRxxUXkUlpi2L7-444" value="" style="verticalLabelPosition=bottom;verticalAlign=top;html=1;shape=mxgraph.basic.diag_round_rect;dx=6;whiteSpace=wrap;" vertex="1" parent="c8XtBeoRxxUXkUlpi2L7-443">
          <mxGeometry width="18" height="20" as="geometry" />
        </mxCell>
        <mxCell id="c8XtBeoRxxUXkUlpi2L7-445" value="" style="sketch=0;outlineConnect=0;fontColor=#232F3E;gradientColor=none;fillColor=#7AA116;strokeColor=none;dashed=0;verticalLabelPosition=bottom;verticalAlign=top;align=center;html=1;fontSize=12;fontStyle=0;aspect=fixed;pointerEvents=1;shape=mxgraph.aws4.iot_thing_temperature_humidity_sensor;" vertex="1" parent="c8XtBeoRxxUXkUlpi2L7-443">
          <mxGeometry x="6" y="4.25" width="15.75" height="15.75" as="geometry" />
        </mxCell>
        <mxCell id="c8XtBeoRxxUXkUlpi2L7-446" value="&lt;span style=&quot;font-size: 10px;&quot;&gt;d&lt;sub&gt;n&lt;/sub&gt;&lt;/span&gt;" style="text;html=1;align=center;verticalAlign=middle;resizable=0;points=[];autosize=1;strokeColor=none;fillColor=none;" vertex="1" parent="1">
          <mxGeometry x="593" y="773.5" width="30" height="30" as="geometry" />
        </mxCell>
        <mxCell id="c8XtBeoRxxUXkUlpi2L7-447" value="" style="group" vertex="1" connectable="0" parent="1">
          <mxGeometry x="305" y="771.5899999999999" width="30" height="41" as="geometry" />
        </mxCell>
        <mxCell id="c8XtBeoRxxUXkUlpi2L7-448" value="" style="group" vertex="1" connectable="0" parent="c8XtBeoRxxUXkUlpi2L7-447">
          <mxGeometry x="13" y="-10" width="24.5" height="20" as="geometry" />
        </mxCell>
        <mxCell id="c8XtBeoRxxUXkUlpi2L7-449" value="" style="verticalLabelPosition=bottom;verticalAlign=top;html=1;shape=mxgraph.basic.diag_round_rect;dx=6;whiteSpace=wrap;" vertex="1" parent="c8XtBeoRxxUXkUlpi2L7-448">
          <mxGeometry width="18" height="20" as="geometry" />
        </mxCell>
        <mxCell id="c8XtBeoRxxUXkUlpi2L7-450" value="" style="image;html=1;image=img/lib/clip_art/networking/Ip_Camera_128x128.png" vertex="1" parent="c8XtBeoRxxUXkUlpi2L7-448">
          <mxGeometry x="8" y="7.139999999999986" width="16.5" height="12.86" as="geometry" />
        </mxCell>
        <mxCell id="c8XtBeoRxxUXkUlpi2L7-451" value="&lt;span style=&quot;font-size: 10px;&quot;&gt;d&lt;sub&gt;1&lt;/sub&gt;&lt;/span&gt;" style="text;html=1;align=center;verticalAlign=middle;resizable=0;points=[];autosize=1;strokeColor=none;fillColor=none;" vertex="1" parent="c8XtBeoRxxUXkUlpi2L7-447">
          <mxGeometry x="7.5" y="3" width="30" height="30" as="geometry" />
        </mxCell>
        <mxCell id="c8XtBeoRxxUXkUlpi2L7-452" value="&lt;font style=&quot;font-size: 10px;&quot;&gt;边缘集群集合&lt;/font&gt;" style="text;html=1;align=center;verticalAlign=middle;whiteSpace=wrap;rounded=0;fontStyle=1" vertex="1" parent="1">
          <mxGeometry x="300.25" y="619" width="74.25" height="20.5" as="geometry" />
        </mxCell>
        <mxCell id="c8XtBeoRxxUXkUlpi2L7-453" value="&lt;font size=&quot;1&quot;&gt;设备集合&lt;/font&gt;" style="text;html=1;align=center;verticalAlign=middle;whiteSpace=wrap;rounded=0;fontStyle=1" vertex="1" parent="1">
          <mxGeometry x="305.25" y="730" width="43.75" height="21.75" as="geometry" />
        </mxCell>
        <mxCell id="c8XtBeoRxxUXkUlpi2L7-454" value="" style="shape=cube;whiteSpace=wrap;html=1;boundedLbl=1;backgroundOutline=1;darkOpacity=0.05;darkOpacity2=0.1;size=9;rotation=0;movable=1;resizable=1;rotatable=1;deletable=1;editable=1;locked=0;connectable=1;" vertex="1" parent="1">
          <mxGeometry x="313.75" y="660" width="50" height="50.5" as="geometry" />
        </mxCell>
        <mxCell id="c8XtBeoRxxUXkUlpi2L7-455" value="" style="strokeWidth=1;html=1;shape=mxgraph.flowchart.database;whiteSpace=wrap;movable=1;resizable=1;rotatable=1;deletable=1;editable=1;locked=0;connectable=1;" vertex="1" parent="1">
          <mxGeometry x="328.75" y="684" width="13.5" height="12.5" as="geometry" />
        </mxCell>
        <mxCell id="c8XtBeoRxxUXkUlpi2L7-456" value="&lt;font style=&quot;font-size: 6px;&quot;&gt;mysql&lt;/font&gt;" style="text;html=1;align=center;verticalAlign=middle;whiteSpace=wrap;rounded=0;movable=1;resizable=1;rotatable=1;deletable=1;editable=1;locked=0;connectable=1;" vertex="1" parent="1">
          <mxGeometry x="323.25" y="694" width="24.5" height="10.5" as="geometry" />
        </mxCell>
        <mxCell id="c8XtBeoRxxUXkUlpi2L7-457" value="" style="rounded=1;whiteSpace=wrap;html=1;fillColor=#f5f5f5;strokeColor=#666666;fontColor=#333333;movable=1;resizable=1;rotatable=1;deletable=1;editable=1;locked=0;connectable=1;" vertex="1" parent="1">
          <mxGeometry x="346.5" y="674.5" width="12" height="10" as="geometry" />
        </mxCell>
        <mxCell id="c8XtBeoRxxUXkUlpi2L7-458" value="" style="rounded=1;whiteSpace=wrap;html=1;fillColor=#dae8fc;strokeColor=#6c8ebf;movable=1;resizable=1;rotatable=1;deletable=1;editable=1;locked=0;connectable=1;" vertex="1" parent="1">
          <mxGeometry x="346.5" y="691.25" width="12" height="10" as="geometry" />
        </mxCell>
        <mxCell id="c8XtBeoRxxUXkUlpi2L7-459" value="" style="group" vertex="1" connectable="0" parent="1">
          <mxGeometry x="313.75" y="805" width="301.5" height="17.680000000000007" as="geometry" />
        </mxCell>
        <mxCell id="c8XtBeoRxxUXkUlpi2L7-460" value="" style="rounded=1;whiteSpace=wrap;html=1;fillColor=#f8cecc;strokeColor=#b85450;container=0;fontStyle=1" vertex="1" parent="c8XtBeoRxxUXkUlpi2L7-459">
          <mxGeometry x="113" y="4.680000000000007" width="12" height="10" as="geometry" />
        </mxCell>
        <mxCell id="c8XtBeoRxxUXkUlpi2L7-461" value="" style="rounded=1;whiteSpace=wrap;html=1;fillColor=#f5f5f5;strokeColor=#666666;container=0;fontColor=#333333;fontStyle=1" vertex="1" parent="c8XtBeoRxxUXkUlpi2L7-459">
          <mxGeometry x="128.5" y="4.930000000000007" width="12" height="10" as="geometry" />
        </mxCell>
        <mxCell id="c8XtBeoRxxUXkUlpi2L7-462" value="" style="rounded=1;whiteSpace=wrap;html=1;fillColor=#dae8fc;strokeColor=#6c8ebf;container=0;fontStyle=1" vertex="1" parent="c8XtBeoRxxUXkUlpi2L7-459">
          <mxGeometry x="144" y="4.680000000000007" width="12" height="10" as="geometry" />
        </mxCell>
        <mxCell id="c8XtBeoRxxUXkUlpi2L7-463" value="&lt;font style=&quot;font-size: 7px;&quot;&gt;设备管理器&lt;/font&gt;" style="text;html=1;align=center;verticalAlign=middle;whiteSpace=wrap;rounded=0;fontStyle=1" vertex="1" parent="c8XtBeoRxxUXkUlpi2L7-459">
          <mxGeometry x="163" y="3.3000000000000114" width="64" height="10.5" as="geometry" />
        </mxCell>
        <mxCell id="c8XtBeoRxxUXkUlpi2L7-464" value="" style="rounded=1;whiteSpace=wrap;html=1;fillColor=#d5e8d4;strokeColor=#82b366;fontStyle=1" vertex="1" parent="c8XtBeoRxxUXkUlpi2L7-459">
          <mxGeometry x="160" y="4.930000000000007" width="12" height="10" as="geometry" />
        </mxCell>
        <mxCell id="c8XtBeoRxxUXkUlpi2L7-465" value="" style="rounded=1;whiteSpace=wrap;html=1;fontStyle=1" vertex="1" parent="c8XtBeoRxxUXkUlpi2L7-459">
          <mxGeometry y="4.180000000000007" width="16.5" height="9.5" as="geometry" />
        </mxCell>
        <mxCell id="c8XtBeoRxxUXkUlpi2L7-466" value="&lt;font style=&quot;font-size: 7px;&quot;&gt;云端节点&lt;/font&gt;" style="text;html=1;align=center;verticalAlign=middle;whiteSpace=wrap;rounded=0;fontStyle=1" vertex="1" parent="c8XtBeoRxxUXkUlpi2L7-459">
          <mxGeometry x="16.5" y="3.930000000000007" width="37" height="10.5" as="geometry" />
        </mxCell>
        <mxCell id="c8XtBeoRxxUXkUlpi2L7-467" value="" style="strokeWidth=1;html=1;shape=mxgraph.flowchart.database;whiteSpace=wrap;fontStyle=1" vertex="1" parent="c8XtBeoRxxUXkUlpi2L7-459">
          <mxGeometry x="222.5" y="3.180000000000007" width="13.5" height="12.5" as="geometry" />
        </mxCell>
        <mxCell id="c8XtBeoRxxUXkUlpi2L7-468" value="" style="shape=image;verticalLabelPosition=bottom;labelBackgroundColor=default;verticalAlign=top;aspect=fixed;imageAspect=0;image=data:image/png,iVBORw0KGgoAAAANSUhEUgAAARwAAAFECAYAAAD1KYF6AAAAAXNSR0IArs4c6QAADolJREFUeF7t3U2S3dYVBOHmOrhLcaSR5ZFG1C65jrYYkoNqNUm8n8IFTuFThEfGK1xkAhltD+wPL/5BAAEEFhH4sOg+boMAAgi8CI6XAAEElhEQnGWo3QgBBATHO4AAAssICM4y1G6EAAKC4x1AAIFlBARnGWo3QgABwfEOIIDAMgKCswy1GyGAgOB4BxBAYBkBwVmG2o0QQEBwvAMIILCMgOAsQ+1GCCAgON4BBBBYRkBwlqF2IwQQEBzvAAIILCMgOMtQuxECCAiOdwABBJYREJxlqN0IAQQExzuAAALLCAjOMtRuhAACguMdQACBZQQEZxlqN0IAAcHxDiCAwDICgrMMtRshgIDgeAcQQGAZAcFZhtqNEEBAcLwDCCCwjIDgLEPtRgggIDjeAQQQWEZAcJahdiMEEBAc7wACCCwjIDjLULsRAggIjncAAQSWERCcZajdCAEEBMc7gAACywgIzjLUboQAAoLjHUAAgWUEBGcZajdCAIEJwXmlCYGTEPjvn+f47SRnGXkMwRmpzaEPJCA6T8AXnCfg+ellCYjOg+oF50FwfnZ5AqLzwCswOji//vrry9d/+QeBPQn8/vvvL1//9Z1/ROdO8KOD8/VZRedO4y5/iIDoPITt3Y/GB0d0Mi+ClW0CorPNaOuKccH59OnTy+fPn989l790tlT79xMEROc5iuOC8+XLl5c//vhDdJ7z7tdPEBCdx+GNDM7XxxWdx6X75fMEROcxhmODIzqPCferHAHRuZ/l6OCIzv3C/SJLQHTu4zk+OKJzn3BX5wmIzu1MK4IjOrcLd+U+BETnNq41wRGd24S7aj8CorPNtio4orMt3BX7EhCdn/OtC47o7PtBWd8mIDo/ZlQZHNHZ/ihcsS8B0fk+39rgiM6+H5T1bQKi855RdXBEZ/ujcMW+BETnLd/64IjOvh+U9W0CovON0SWCIzrbH4Ur9iUgOn/xvUxwRGffD8r6NgHRuVhwRGf7o3DFvgSuHp1L/YXz/1fJ/7TFvh+V9Z8TuHJ0Lhkcf+lIwtEErhqdywZHdI7+5Nz/itG5dHBEx0d/NIGrRefywRGdoz85979SdATn7/fdf5Hswz+SwFWiIzj/eMtE58hPzr2vEB3B+dd7Ljo+/CMJtEdHcL7zdonOkZ+cezdHR3B+8H6Ljg//SAKt0RGcn7xVonPkJ+fejdERnI33WnR8+EcSaIuO4NzwNonODZBcshuBpugIzo2viejcCMpluxBoiY7g3PF6iM4dsFwaJ9AQHcG587UQnTuBuTxKYHp0BOeB1+FH0Xlgyk8QSBL4759jvyUH01uC8yBR0XkQnJ/tTeDU3/SpD/e3mdd/Gvry5cvewm7eF52bUblwHYFTf9OnPtzZg/P1fB8/flz3KrkTAtsETv1Nn/pwE4Pz+vrmD7Lt18MVCDxB4MOHd5/wqb/pUx9OcJ54E/30EgQEJ6/5tP8dzvf+I5W/cPIvgMUfExCc/NshOHmmFksICE5epODkmVosISA4eZGCk2dqsYSA4ORFCk6eqcUSAoKTFyk4eaYWSwgITl6k4OSZWiwhIDh5kYKTZ2qxhIDg5EUKTp6pxRICgpMXKTh5phZLCAhOXqTg5JlaLCEgOHmRgpNnarGEgODkRQpOnqnFEgKCkxcpOHmmFksICE5epODkmVosISA4eZGCk2dqsYSA4ORFCk6eqcUSAoKTFyk4eaYWSwgITl6k4OSZWiwhIDh5kYKTZ2qxhIDg5EUKTp6pxRICgpMXKTh5phZLCAhOXqTg5JlaLCEgOHmRgpNnarGEgODkRQpOnqnFEgKCkxcpOHmmFksICE5epODkmVosISA4eZGCk2dqsYSA4ORFCk6eqcUSAoKTFyk4eaYWSwgITl6k4OSZWiwhIDh5kYKTZ2qxhIDg5EUKTp6pxRICgpMXKTh5phZLCAhOXqTg5JlaLCEgOHmRgpNnarGEgODkRQpOnqnFEgKCkxcpOHmmFksICE5epODkmVosISA4eZGCk2dqsYSA4ORFCk6eqcUSAoKTFyk4eaYWSwgITl6k4OSZWiwhIDh5kYKTZ2qxhIDg5EUKTp6pxRICgpMXKTh5phZLCAhOXqTg5JlaLCEgOHmRgpNnarGEgODkRQpOnqnFEgKCkxcpOHmmFksICE5epODkmVosISA4eZGCk2dqsYSA4ORFCk6eqcUSAoKTFyk4eaYWSwgITl6k4OSZWiwhIDh5kYKTZ2qxhIDg5EUKTp6pxRICgpMXKTh5phZLCAhOXqTg5JlaLCEgOHmRgpNnarGEgODkRQpOnqnFEgKCkxcpOHmmFksICE5epODkmVosISA4eZGCk2dqsYSA4ORFCk6eqcUSAoKTFyk4eaYWSwgITl6k4OSZWiwhIDh5kYKTZ2qxhIDg5EUKTp6pxRICgpMXKTh5phZLCAhOXqTg5JlaLCEgOHmRgpNnarGEgODkRQpOnqnFEgKCkxcpOHmmFksICE5epODkmVosISA4eZGCk2dqsYSA4ORFCk6eqcUSAoKTFyk4eaYWSwgITl6k4OSZWiwhIDh5kYKTZ2qxhIDg5EUKTp6pxRICgpMXKTh5phZLCAhOXqTg5JlaLCEgOHmRgpNnarGEgODkRQpOnqnFEgKCkxcpOHmmFksICE5epODkmVosISA4eZGCk2dqsYSA4ORFCk6eqcUSAoKTFyk4eaYWSwgITl6k4OSZWiwhIDh5kYKTZ2qxhIDg5EUKTp6pxRICgpMXKTh5phZLCAhOXqTg5JlaLCEgOHmRgpNnarGEgODkRQpOnqnFEgKCkxcpOHmmFksICE5epODkmVosISA4eZGCk2dqsYSA4ORFCk6eqcUSAoKTFyk4eaYWSwgITl6k4OSZWiwhIDh5kYKTZ2qxhIDg5EUKTp6pxRICgpMXKTh5phZLCAhOXqTg5JlaLCEgOHmRgpNnarGEgODkRQpOnqnFEgKCkxcpOHmmFksICE5epODkmVosISA4eZGCk2dqsYSA4ORFCk6eqcUSAoKTFyk4eaYWSwgITl6k4OSZWiwhIDh5kYKTZ2qxhIDg5EUKTp6pxRICgpMXKTh5phZLCAhOXqTg5JlaLCEgOHmRgpNnarGEgODkRQpOnqnFEgKCkxcpOHmmFksICE5epODkmVosISA4eZGCk2dqsYSA4ORFCk6eqcUSAoKTFyk4eaYWSwgITl6k4OSZWiwhIDh5kYKTZ2qxhIDg5EUKTp6pxRICgpMXKTh5phZLCAhOXqTg5JlaLCEgOHmRgpNnarGEgODkRQpOnqnFEgKCkxcpOHmmFksICE5epODkmVosISA4eZGCk2dqsYSA4ORFCk6eqcUSAoKTFyk4eaYWSwgITl6k4OSZWiwhIDh5kYKTZ2qxhIDg5EUKTp6pxRICgpMXKTh5phZLCAhOXqTg5JlaLCEgOHmRgpNnarGEgODkRQpOnqnFEgKCkxcpOHmmFksICE5epODkmVosISA4eZGCk2dqsYSA4ORFCk6eqcUSAoKTFyk4eaYWSwgITl6k4OSZWiwhIDh5kYKTZ2qxhIDg5EUKTp6pxRICgpMXKTh5phZLCAhOXqTg5JlaLCEgOHmRb4Lz6dOnl19++SV/lwcXP378+OaXr69vjvvgqp8hcBsBwbmN0z1XvfuCzxQdwblHpWvTBAQnTfTl5beXl5f//Hv2LNERnLxwi7cTEJzbWd1z5WmjIzj3aHRtmoDgpIl+2ztldARnP+GWtwkIzjajZ644XXQE5xmdfvssAcF5luD2708VHcHZFuaK/QgIzn5s/7l8mugIzhrh7vJ9AoKz7s04RXQEZ51wd3pPQHDWvhWHR0dw1gp3t7cEBGf9G3FodARnvXB3/EZAcI55Gw6LjuAcI9xd/yIgOMe9CYdER3COE+7OgnP0O7A8OoJztPJr399fOMf7XxodwTle+JVPIDjnsL8sOoJzDuFXPYXgnMf8kugIznmEX/EkgnMu67tHR3DOJfxqpxGc8xnfNTqCcz7hVzqR4JzT9m7REZxzCr/KqQTnvKZ3iY7gnFf4FU4mOOe2HI+O4JxbePvpBOf8hqPREZzzC28+oeDMsBuLjuDMEN56SsGZYzYSHcGZI7zxpIIzy+rT0RGcWcLbTis484w+FR3BmSe86cSCM9Pmw9ERnJnCW04tOHNNPhQdwZkrvOHkgjPb4t3REZzZwqefXnCmG7zz/8tccOYLn/wEgjPZ3rez3/yXjuB0CJ/6FIIz1dz7c98UHcHpET7xSQRnorUfn3kzOoLTJXza0wjONGPb5/1pdARnG6Ar9iMgOPuxPXL5h9H5/Pnzm3O9vr4eeU73vhgBwekV/t3o/PtxBaf3BTjjkwnOGa3kzrQZHcHJwba0TUBwthlNv+Kn0RGc6XpnnV9wZvl69LSbf+k8Oux3CDxJ4MOTv9/156c+3K5P/vy46DzP0EKewKm/6VMfLu8ivig6caQGnyRw6m/61Id7Evyqn4vOKtLucwuBU3/Tpz7cLXRdgwACcwgIzhxXTorAeAKCM16hB0BgDgHBmePKSREYT0Bwxiv0AAjMISA4c1w5KQLjCQjOeIUeAIE5BARnjisnRWA8AcEZr9ADIDCHgODMceWkCIwnIDjjFXoABOYQEJw5rpwUgfEEBGe8Qg+AwBwCgjPHlZMiMJ6A4IxX6AEQmENAcOa4clIExhMQnPEKPQACcwgIzhxXTorAeAKCM16hB0BgDgHBmePKSREYT0Bwxiv0AAjMISA4c1w5KQLjCQjOeIUeAIE5BARnjisnRWA8AcEZr9ADIDCHgODMceWkCIwnIDjjFXoABOYQEJw5rpwUgfEEBGe8Qg+AwBwCgjPHlZMiMJ6A4IxX6AEQmENAcOa4clIExhMQnPEKPQACcwgIzhxXTorAeAKCM16hB0BgDgHBmePKSREYT0Bwxiv0AAjMISA4c1w5KQLjCQjOeIUeAIE5BARnjisnRWA8gf8BrBRdri7OPKMAAAAASUVORK5CYII=;" vertex="1" parent="c8XtBeoRxxUXkUlpi2L7-459">
          <mxGeometry x="56.5" width="15.5" height="17.68" as="geometry" />
        </mxCell>
        <mxCell id="c8XtBeoRxxUXkUlpi2L7-469" value="&lt;font style=&quot;font-size: 7px;&quot;&gt;边端节点&lt;/font&gt;" style="text;html=1;align=center;verticalAlign=middle;whiteSpace=wrap;rounded=0;fontStyle=1" vertex="1" parent="c8XtBeoRxxUXkUlpi2L7-459">
          <mxGeometry x="69.75" y="3.680000000000007" width="37" height="10.5" as="geometry" />
        </mxCell>
        <mxCell id="c8XtBeoRxxUXkUlpi2L7-470" value="&lt;font style=&quot;font-size: 7px;&quot;&gt;数据库&lt;/font&gt;" style="text;html=1;align=center;verticalAlign=middle;whiteSpace=wrap;rounded=0;fontStyle=1" vertex="1" parent="c8XtBeoRxxUXkUlpi2L7-459">
          <mxGeometry x="233.25" y="5.560000000000002" width="37" height="6.75" as="geometry" />
        </mxCell>
        <mxCell id="c8XtBeoRxxUXkUlpi2L7-471" value="" style="verticalLabelPosition=bottom;verticalAlign=top;html=1;shape=mxgraph.basic.diag_round_rect;dx=6;whiteSpace=wrap;fontStyle=1" vertex="1" parent="c8XtBeoRxxUXkUlpi2L7-459">
          <mxGeometry x="270.5" y="3.019999999999982" width="8" height="11.07" as="geometry" />
        </mxCell>
        <mxCell id="c8XtBeoRxxUXkUlpi2L7-472" value="&lt;font style=&quot;font-size: 7px;&quot;&gt;设备&lt;/font&gt;" style="text;html=1;align=center;verticalAlign=middle;whiteSpace=wrap;rounded=0;fontStyle=1" vertex="1" parent="c8XtBeoRxxUXkUlpi2L7-459">
          <mxGeometry x="278.5" y="6.050000000000011" width="24" height="6.75" as="geometry" />
        </mxCell>
        <mxCell id="c8XtBeoRxxUXkUlpi2L7-473" value="" style="endArrow=openThin;html=1;rounded=0;endFill=0;endSize=3;dashed=1;dashPattern=1 2;edgeStyle=orthogonalEdgeStyle;entryX=1;entryY=0.5;entryDx=0;entryDy=0;" edge="1" parent="1" target="c8XtBeoRxxUXkUlpi2L7-457">
          <mxGeometry width="50" height="50" relative="1" as="geometry">
            <mxPoint x="371" y="760" as="sourcePoint" />
            <mxPoint x="360" y="708.5" as="targetPoint" />
            <Array as="points">
              <mxPoint x="371" y="680" />
              <mxPoint x="359" y="680" />
            </Array>
          </mxGeometry>
        </mxCell>
        <mxCell id="c8XtBeoRxxUXkUlpi2L7-474" value="" style="shape=cube;whiteSpace=wrap;html=1;boundedLbl=1;backgroundOutline=1;darkOpacity=0.05;darkOpacity2=0.1;size=10;rotation=0;" vertex="1" parent="1">
          <mxGeometry x="464.25" y="660" width="50" height="51.5" as="geometry" />
        </mxCell>
        <mxCell id="c8XtBeoRxxUXkUlpi2L7-475" value="" style="rounded=1;whiteSpace=wrap;html=1;fillColor=#dae8fc;strokeColor=#6c8ebf;" vertex="1" parent="1">
          <mxGeometry x="488.25" y="687.25" width="12" height="10" as="geometry" />
        </mxCell>
        <mxCell id="c8XtBeoRxxUXkUlpi2L7-476" value="" style="shape=cube;whiteSpace=wrap;html=1;boundedLbl=1;backgroundOutline=1;darkOpacity=0.05;darkOpacity2=0.1;size=10;rotation=0;" vertex="1" parent="1">
          <mxGeometry x="563.75" y="660" width="50" height="51.5" as="geometry" />
        </mxCell>
        <mxCell id="c8XtBeoRxxUXkUlpi2L7-477" value="&lt;font style=&quot;font-size: 6px;&quot;&gt;tdengine&lt;/font&gt;" style="text;html=1;align=center;verticalAlign=middle;whiteSpace=wrap;rounded=0;" vertex="1" parent="1">
          <mxGeometry x="576" y="694.5" width="24.5" height="10.5" as="geometry" />
        </mxCell>
        <mxCell id="c8XtBeoRxxUXkUlpi2L7-478" value="" style="strokeWidth=1;html=1;shape=mxgraph.flowchart.database;whiteSpace=wrap;" vertex="1" parent="1">
          <mxGeometry x="580.5" y="684.5" width="13.5" height="12.5" as="geometry" />
        </mxCell>
        <mxCell id="c8XtBeoRxxUXkUlpi2L7-479" value="" style="rounded=1;whiteSpace=wrap;html=1;fillColor=#dae8fc;strokeColor=#6c8ebf;" vertex="1" parent="1">
          <mxGeometry x="599.5" y="690.5" width="12" height="10" as="geometry" />
        </mxCell>
        <mxCell id="c8XtBeoRxxUXkUlpi2L7-480" value="" style="rounded=1;whiteSpace=wrap;html=1;fillColor=#d5e8d4;strokeColor=#82b366;" vertex="1" parent="1">
          <mxGeometry x="599.5" y="676.5" width="12" height="10" as="geometry" />
        </mxCell>
        <mxCell id="c8XtBeoRxxUXkUlpi2L7-481" style="edgeStyle=orthogonalEdgeStyle;rounded=0;orthogonalLoop=1;jettySize=auto;html=1;exitX=0;exitY=0;exitDx=20;exitDy=0;exitPerimeter=0;entryX=0.391;entryY=-0.017;entryDx=0;entryDy=0;entryPerimeter=0;" edge="1" parent="1" source="c8XtBeoRxxUXkUlpi2L7-474" target="c8XtBeoRxxUXkUlpi2L7-474">
          <mxGeometry relative="1" as="geometry" />
        </mxCell>
        <mxCell id="c8XtBeoRxxUXkUlpi2L7-482" value="&lt;span style=&quot;font-size: 9px;&quot;&gt;B&lt;sub&gt;1&lt;/sub&gt;&lt;/span&gt;" style="text;html=1;align=center;verticalAlign=middle;whiteSpace=wrap;rounded=0;fontStyle=1" vertex="1" parent="1">
          <mxGeometry x="311" y="640" width="22" height="20.5" as="geometry" />
        </mxCell>
        <mxCell id="c8XtBeoRxxUXkUlpi2L7-483" value="" style="endArrow=classic;startArrow=classic;html=1;rounded=0;exitX=0;exitY=0;exitDx=20.5;exitDy=0;exitPerimeter=0;entryX=0.472;entryY=-0.006;entryDx=0;entryDy=0;entryPerimeter=0;endSize=3;startSize=3;" edge="1" parent="1" source="c8XtBeoRxxUXkUlpi2L7-454" target="c8XtBeoRxxUXkUlpi2L7-474">
          <mxGeometry width="50" height="50" relative="1" as="geometry">
            <mxPoint x="320" y="680" as="sourcePoint" />
            <mxPoint x="370" y="630" as="targetPoint" />
            <Array as="points">
              <mxPoint x="334" y="650" />
              <mxPoint x="410" y="650" />
              <mxPoint x="489" y="650" />
            </Array>
          </mxGeometry>
        </mxCell>
        <mxCell id="c8XtBeoRxxUXkUlpi2L7-484" value="" style="endArrow=openThin;html=1;rounded=0;endFill=0;endSize=3;dashed=1;dashPattern=1 2;edgeStyle=orthogonalEdgeStyle;exitX=0.5;exitY=0;exitDx=0;exitDy=0;exitPerimeter=0;entryX=0.5;entryY=1;entryDx=0;entryDy=0;" edge="1" parent="1" source="c8XtBeoRxxUXkUlpi2L7-449" target="c8XtBeoRxxUXkUlpi2L7-458">
          <mxGeometry width="50" height="50" relative="1" as="geometry">
            <mxPoint x="330" y="778.5" as="sourcePoint" />
            <mxPoint x="349.5" y="731.25" as="targetPoint" />
            <Array as="points">
              <mxPoint x="327" y="750" />
              <mxPoint x="353" y="750" />
              <mxPoint x="353" y="721" />
              <mxPoint x="353" y="721" />
            </Array>
          </mxGeometry>
        </mxCell>
        <mxCell id="c8XtBeoRxxUXkUlpi2L7-485" value="" style="endArrow=classic;startArrow=classic;html=1;rounded=0;exitX=0;exitY=0;exitDx=20.5;exitDy=0;exitPerimeter=0;entryX=0.444;entryY=-0.007;entryDx=0;entryDy=0;entryPerimeter=0;endSize=3;startSize=3;" edge="1" parent="1" source="c8XtBeoRxxUXkUlpi2L7-454" target="c8XtBeoRxxUXkUlpi2L7-419">
          <mxGeometry width="50" height="50" relative="1" as="geometry">
            <mxPoint x="344" y="670" as="sourcePoint" />
            <mxPoint x="498" y="670" as="targetPoint" />
            <Array as="points">
              <mxPoint x="334" y="650" />
              <mxPoint x="370" y="650" />
              <mxPoint x="410" y="650" />
            </Array>
          </mxGeometry>
        </mxCell>
        <mxCell id="c8XtBeoRxxUXkUlpi2L7-486" value="&lt;span style=&quot;font-size: 9px;&quot;&gt;B&lt;sub&gt;p&lt;/sub&gt;&lt;/span&gt;" style="text;html=1;align=center;verticalAlign=middle;whiteSpace=wrap;rounded=0;fontStyle=1" vertex="1" parent="1">
          <mxGeometry x="562" y="639.5" width="22" height="20.5" as="geometry" />
        </mxCell>
        <mxCell id="c8XtBeoRxxUXkUlpi2L7-487" value="" style="endArrow=classic;startArrow=classic;html=1;rounded=0;exitX=0.5;exitY=0;exitDx=0;exitDy=0;entryX=0.475;entryY=0;entryDx=0;entryDy=0;entryPerimeter=0;" edge="1" parent="1" source="c8XtBeoRxxUXkUlpi2L7-400" target="c8XtBeoRxxUXkUlpi2L7-399">
          <mxGeometry width="50" height="50" relative="1" as="geometry">
            <mxPoint x="260" y="650" as="sourcePoint" />
            <mxPoint x="310" y="600" as="targetPoint" />
            <Array as="points">
              <mxPoint x="414" y="620" />
              <mxPoint x="414" y="610" />
              <mxPoint x="432" y="610" />
              <mxPoint x="590" y="610" />
            </Array>
          </mxGeometry>
        </mxCell>
        <mxCell id="c8XtBeoRxxUXkUlpi2L7-488" value="" style="endArrow=classic;startArrow=classic;html=1;rounded=0;entryX=0.786;entryY=0.954;entryDx=0;entryDy=0;entryPerimeter=0;" edge="1" parent="1">
          <mxGeometry width="50" height="50" relative="1" as="geometry">
            <mxPoint x="590" y="640" as="sourcePoint" />
            <mxPoint x="499.89200000000005" y="588.73" as="targetPoint" />
            <Array as="points">
              <mxPoint x="589.8200000000002" y="610.19" />
              <mxPoint x="500" y="610" />
            </Array>
          </mxGeometry>
        </mxCell>
        <mxCell id="c8XtBeoRxxUXkUlpi2L7-489" value="" style="endArrow=classic;startArrow=classic;html=1;rounded=0;exitX=0.5;exitY=0;exitDx=0;exitDy=0;entryX=0.25;entryY=1;entryDx=0;entryDy=0;" edge="1" parent="1" source="c8XtBeoRxxUXkUlpi2L7-400" target="c8XtBeoRxxUXkUlpi2L7-406">
          <mxGeometry width="50" height="50" relative="1" as="geometry">
            <mxPoint x="424" y="670" as="sourcePoint" />
            <mxPoint x="442" y="599" as="targetPoint" />
            <Array as="points">
              <mxPoint x="414" y="610" />
              <mxPoint x="432" y="610" />
            </Array>
          </mxGeometry>
        </mxCell>
        <mxCell id="c8XtBeoRxxUXkUlpi2L7-490" value="" style="endArrow=openThin;html=1;rounded=0;entryX=1;entryY=0.5;entryDx=0;entryDy=0;endFill=0;endSize=3;dashed=1;dashPattern=1 2;edgeStyle=orthogonalEdgeStyle;exitX=0.5;exitY=0;exitDx=0;exitDy=0;exitPerimeter=0;" edge="1" parent="1" source="c8XtBeoRxxUXkUlpi2L7-434" target="c8XtBeoRxxUXkUlpi2L7-475">
          <mxGeometry width="50" height="50" relative="1" as="geometry">
            <mxPoint x="530" y="778.5" as="sourcePoint" />
            <mxPoint x="506.5" y="717.25" as="targetPoint" />
            <Array as="points">
              <mxPoint x="530" y="761" />
              <mxPoint x="530" y="692" />
            </Array>
          </mxGeometry>
        </mxCell>
        <mxCell id="c8XtBeoRxxUXkUlpi2L7-491" value="" style="endArrow=openThin;html=1;rounded=0;entryX=0.5;entryY=1;entryDx=0;entryDy=0;endFill=0;endSize=3;dashed=1;dashPattern=1 2;edgeStyle=orthogonalEdgeStyle;exitX=0.565;exitY=-0.001;exitDx=0;exitDy=0;exitPerimeter=0;" edge="1" parent="1" source="c8XtBeoRxxUXkUlpi2L7-416" target="c8XtBeoRxxUXkUlpi2L7-475">
          <mxGeometry width="50" height="50" relative="1" as="geometry">
            <mxPoint x="494" y="789" as="sourcePoint" />
            <mxPoint x="490" y="722.5" as="targetPoint" />
            <Array as="points">
              <mxPoint x="500" y="761" />
              <mxPoint x="494" y="760" />
            </Array>
          </mxGeometry>
        </mxCell>
        <mxCell id="c8XtBeoRxxUXkUlpi2L7-492" value="" style="endArrow=openThin;html=1;rounded=0;entryX=0.5;entryY=1;entryDx=0;entryDy=0;exitX=0.5;exitY=0;exitDx=0;exitDy=0;exitPerimeter=0;endFill=0;endSize=3;dashed=1;dashPattern=1 2;edgeStyle=orthogonalEdgeStyle;" edge="1" parent="1" source="c8XtBeoRxxUXkUlpi2L7-440" target="c8XtBeoRxxUXkUlpi2L7-479">
          <mxGeometry width="50" height="50" relative="1" as="geometry">
            <mxPoint x="642" y="839.5" as="sourcePoint" />
            <mxPoint x="729.75" y="761.5" as="targetPoint" />
            <Array as="points">
              <mxPoint x="570" y="750" />
              <mxPoint x="606" y="750" />
            </Array>
          </mxGeometry>
        </mxCell>
        <mxCell id="c8XtBeoRxxUXkUlpi2L7-493" value="" style="endArrow=openThin;html=1;rounded=0;entryX=1;entryY=0.5;entryDx=0;entryDy=0;endFill=0;endSize=3;dashed=1;dashPattern=1 2;edgeStyle=orthogonalEdgeStyle;exitX=0.681;exitY=0.008;exitDx=0;exitDy=0;exitPerimeter=0;" edge="1" parent="1" source="c8XtBeoRxxUXkUlpi2L7-444" target="c8XtBeoRxxUXkUlpi2L7-480">
          <mxGeometry width="50" height="50" relative="1" as="geometry">
            <mxPoint x="610" y="778.5" as="sourcePoint" />
            <mxPoint x="598" y="711.5" as="targetPoint" />
            <Array as="points">
              <mxPoint x="610" y="750" />
              <mxPoint x="620" y="750" />
              <mxPoint x="620" y="681" />
            </Array>
          </mxGeometry>
        </mxCell>
        <mxCell id="c8XtBeoRxxUXkUlpi2L7-495" value="&lt;font style=&quot;font-size: 10px;&quot;&gt;e&lt;/font&gt;&lt;font style=&quot;font-size: 8px;&quot;&gt;&lt;sub&gt;1&lt;/sub&gt;&lt;/font&gt;" style="text;html=1;align=center;verticalAlign=middle;whiteSpace=wrap;rounded=0;" vertex="1" parent="1">
          <mxGeometry x="322.75" y="670" width="23.75" height="10" as="geometry" />
        </mxCell>
        <mxCell id="c8XtBeoRxxUXkUlpi2L7-496" value="&lt;font style=&quot;font-size: 10px;&quot;&gt;e&lt;/font&gt;&lt;font style=&quot;font-size: 8px;&quot;&gt;&lt;sub&gt;2&lt;/sub&gt;&lt;/font&gt;" style="text;html=1;align=center;verticalAlign=middle;whiteSpace=wrap;rounded=0;" vertex="1" parent="1">
          <mxGeometry x="397.63" y="671" width="23.75" height="10" as="geometry" />
        </mxCell>
        <mxCell id="c8XtBeoRxxUXkUlpi2L7-499" value="&lt;font style=&quot;font-size: 10px;&quot;&gt;e&lt;/font&gt;&lt;font style=&quot;font-size: 8px;&quot;&gt;&lt;sub&gt;3&lt;/sub&gt;&lt;/font&gt;" style="text;html=1;align=center;verticalAlign=middle;whiteSpace=wrap;rounded=0;" vertex="1" parent="1">
          <mxGeometry x="473.25" y="671" width="23.75" height="10" as="geometry" />
        </mxCell>
        <mxCell id="c8XtBeoRxxUXkUlpi2L7-500" value="&lt;font style=&quot;font-size: 10px;&quot;&gt;e&lt;/font&gt;&lt;font style=&quot;font-size: 8px;&quot;&gt;&lt;sub&gt;m&lt;/sub&gt;&lt;/font&gt;" style="text;html=1;align=center;verticalAlign=middle;whiteSpace=wrap;rounded=0;" vertex="1" parent="1">
          <mxGeometry x="574" y="671" width="23.75" height="10" as="geometry" />
        </mxCell>
      </root>
    </mxGraphModel>
  </diagram>
</mxfile>
